HIERARCHY
ROOT root
{
	OFFSET	0	13.1	24.9
	CHANNELS 6  Xposition Yposition Zposition Xrotation Yrotation Zrotation
	JOINT spine_1
	{
		OFFSET	0	9.99999	0
		CHANNELS 3  Xrotation Yrotation Zrotation
		JOINT spine_2
		{
			OFFSET	0	112	-10
			CHANNELS 3  Xrotation Yrotation Zrotation
			JOINT spine_3
			{
				OFFSET	0	206.5	19.3
				CHANNELS 3  Xrotation Yrotation Zrotation
				JOINT spine_4
				{
					OFFSET	0	110.4	14.6
					CHANNELS 3  Xrotation Yrotation Zrotation
					JOINT neck_1
					{
						OFFSET	0	71.8	-50.3
						CHANNELS 3  Xrotation Yrotation Zrotation
						JOINT neck_2
						{
							OFFSET	0	86.2	-25.8
							CHANNELS 3  Xrotation Yrotation Zrotation
							JOINT head_ee
							{
								OFFSET	0	179.8	-8.7
								CHANNELS 3  Xrotation Yrotation Zrotation
								End Site
								{
									OFFSET	1	0	0
								}
							}
						}
					}
					JOINT left_clavicle
					{
						OFFSET	-43.2	22.4	-70.8
						CHANNELS 3  Xrotation Yrotation Zrotation
						JOINT left_shoulder
						{
							OFFSET	-93.9	-5.79999	48.7
							CHANNELS 3  Xrotation Yrotation Zrotation
							JOINT left_elbow
							{
								OFFSET	-291.4	-30.8	15.2
								CHANNELS 3  Xrotation Yrotation Zrotation
								JOINT left_lowarm_twist
								{
									OFFSET	-110.7	-3.89999	13.6
									CHANNELS 3  Xrotation Yrotation Zrotation
									JOINT left_hand
									{
										OFFSET	-110.7	-3.89999	13.6
										CHANNELS 3  Xrotation Yrotation Zrotation
										JOINT left_ee
										{
											OFFSET	-80.8	-5.10001	12.1
											CHANNELS 3  Xrotation Yrotation Zrotation
											End Site
											{
												OFFSET	1	0	0
											}
										}
									}
								}
							}
						}
					}
					JOINT right_clavicle
					{
						OFFSET	43.2	22.4	-70.8
						CHANNELS 3  Xrotation Yrotation Zrotation
						JOINT right_shoulder
						{
							OFFSET	93.9	-5.79999	48.7
							CHANNELS 3  Xrotation Yrotation Zrotation
							JOINT right_elbow
							{
								OFFSET	291.4	-30.8	15.2
								CHANNELS 3  Xrotation Yrotation Zrotation
								JOINT right_lowarm_twist
								{
									OFFSET	110.7	-3.89999	13.6
									CHANNELS 3  Xrotation Yrotation Zrotation
									JOINT right_hand
									{
										OFFSET	110.7	-3.89999	13.6
										CHANNELS 3  Xrotation Yrotation Zrotation
										JOINT right_ee
										{
											OFFSET	80.8	-5.10001	12.1
											CHANNELS 3  Xrotation Yrotation Zrotation
											End Site
											{
												OFFSET	1	0	0
											}
										}
									}
								}
							}
						}
					}
				}
			}
		}
	}
	JOINT left_hip
	{
		OFFSET	-82.8	-127.5	0.300001
		CHANNELS 3  Xrotation Yrotation Zrotation
		JOINT left_knee
		{
			OFFSET	-28.2	-396.7	2.2
			CHANNELS 3  Xrotation Yrotation Zrotation
			JOINT left_ankle
			{
				OFFSET	-11.7	-411.3	35.4
				CHANNELS 3  Xrotation Yrotation Zrotation
				JOINT left_toes
				{
					OFFSET	0	-60	-88.6
					CHANNELS 3  Xrotation Yrotation Zrotation
					JOINT left_foot_ee
					{
						OFFSET	-22.5	-16.5	-42.2
						CHANNELS 3  Xrotation Yrotation Zrotation
						End Site
						{
							OFFSET	1	0	0
						}
					}
				}
			}
		}
	}
	JOINT right_hip
	{
		OFFSET	82.8	-127.5	0.300001
		CHANNELS 3  Xrotation Yrotation Zrotation
		JOINT right_knee
		{
			OFFSET	28.2	-396.7	2.2
			CHANNELS 3  Xrotation Yrotation Zrotation
			JOINT right_ankle
			{
				OFFSET	11.7	-411.3	35.4
				CHANNELS 3  Xrotation Yrotation Zrotation
				JOINT right_toes
				{
					OFFSET	0	-60	-88.6
					CHANNELS 3  Xrotation Yrotation Zrotation
					JOINT right_foot_ee
					{
						OFFSET	22.5	-16.5	-42.2
						CHANNELS 3  Xrotation Yrotation Zrotation
						End Site
						{
							OFFSET	1	0	0
						}
					}
				}
			}
		}
	}
}
MOTION
Frames: 7
Frame Time: 0.02
1372.05 701.618 -1475.22 8.45846479193 29.4132825321 0.728209531302 -2.5001 -0.499187 -2.30211 -2.49722 -0.351727 -2.32919 -2.47913 0.247266 -2.34257 -2.48677 -0.125697 -2.35222 3.1782 7.55473 5.8155 3.29135 8.16984 7.00802 -0.0 0.0 -0.0 10.6536 0.303334 20.9937 -26.4528 -63.4594 23.1755 1.15349 -29.7428 0.306312 60.5209 -1.82052 -7.15577 -2.03705 -28.2208 -25.543 -0.0 0.0 -0.0 6.78359 -5.93639 -13.1117 -25.7857 28.5676 -57.749 0.224281 6.33984 -0.0124211 49.4893 0.932495 6.05896 0.583242 0.255006 -3.79279 0.0 0.0 0.0 -30.6973 8.27524 -1.49306 -3.48984 0.127874 0.520233 33.4082 -15.1335 -4.53752 -37.0541 0.0 0.0 -0.0 0.0 -0.0 11.2223 -24.9423 -11.9386 -1.78343 -0.0693126 -0.264906 22.6354 15.1745 3.29189 -39.7696 0.0 0.0 0.0 0.0 0.0 
1363.18857862 695.035 -1490.13119218 8.76796891928 29.4655199219 0.385923240996 -2.65786 -0.229822 -2.19034 -2.65519 -0.0900141 -2.20051 -2.64863 0.474584 -2.15064 -2.65506 0.129061 -2.19857 2.32343 7.39677 5.85898 2.43501 7.99885 7.04791 -0.0 0.0 -0.0 10.5323 0.843495 20.7084 -28.4024 -61.2503 22.708 1.12447 -29.1181 0.292053 59.8749 -1.7628 -7.09637 -2.03776 -28.2043 -25.5422 -0.0 0.0 -0.0 7.36279 -4.91861 -14.2293 -25.0863 28.82 -57.6877 0.226299 6.39641 -0.012645 49.5205 0.934696 6.06228 0.533241 0.449378 -3.37753 0.0 0.0 0.0 -30.6642 8.21789 -1.53516 -3.74999 0.136132 0.559305 33.1331 -15.8573 -4.53095 -36.9875 0.0 0.0 -0.0 0.0 -0.0 11.5069 -25.286 -11.5036 -1.74755 -0.0679997 -0.259557 19.3863 14.7835 2.86117 -40.2473 0.0 0.0 0.0 0.0 0.0 
1352.72768022 700.759 -1514.5322042 8.53896585389 29.7725265448 -0.210549293646 -2.77127 -0.114322 -2.06024 -2.76891 0.0169798 -2.06333 -2.7669 0.547169 -1.98956 -2.77235 0.226157 -2.05098 1.93412 7.07012 5.49662 2.03461 7.79525 6.62569 -0.0 0.0 -0.0 10.465 0.929654 20.5638 -28.614 -60.1727 23.7315 1.09396 -28.4532 0.277363 59.4198 -1.72254 -7.05415 -2.04524 -28.1689 -25.5819 -0.0 0.0 -0.0 7.79706 -3.90638 -15.0924 -24.6483 29.1631 -57.8035 0.231103 6.53103 -0.0131858 49.4943 0.932844 6.05948 0.48316 0.602038 -2.97883 0.0 0.0 0.0 -29.7019 7.74326 -0.0306924 -4.08504 0.146506 0.609679 32.9111 -16.8582 -4.53958 -36.9409 0.0 0.0 -0.0 0.0 -0.0 10.7433 -25.6316 -11.7611 -3.60423 -0.131527 -0.537409 16.3452 14.6676 2.44698 -40.1323 0.0 0.0 0.0 0.0 0.0 
1353.29924678 700.759 -1514.80801201 8.46989948441 28.9515473837 -0.0696950158915 -2.77127 -0.114322 -2.06024 -2.76891 0.0169798 -2.06333 -2.7669 0.547169 -1.98956 -2.77235 0.226157 -2.05098 1.93412 7.07012 5.49662 2.03461 7.79525 6.62569 -0.0 0.0 -0.0 10.465 0.929654 20.5638 -28.614 -60.1727 23.7315 1.09396 -28.4532 0.277363 59.4198 -1.72254 -7.05415 -2.04524 -28.1689 -25.5819 -0.0 0.0 -0.0 7.79706 -3.90638 -15.0924 -24.6483 29.1631 -57.8035 0.231103 6.53103 -0.0131858 49.4943 0.932844 6.05948 0.48316 0.602038 -2.97883 0.0 0.0 0.0 -29.7019 7.74326 -0.0306924 -4.08504 0.146506 0.609679 32.9111 -16.8582 -4.53958 -36.9409 0.0 0.0 -0.0 0.0 -0.0 10.7433 -25.6316 -11.7611 -3.60423 -0.131527 -0.537409 16.3452 14.6676 2.44698 -40.1323 0.0 0.0 0.0 0.0 0.0 
1314.11723248 703.958 -1556.94571326 9.3250483128 29.5211531077 -1.22591815096 -2.99221 0.00337801 -1.89453 -2.99022 0.123903 -1.89048 -2.9922 0.613104 -1.79262 -2.99654 0.322351 -1.86692 2.9919 6.30118 3.62237 3.06256 7.89309 4.47973 -0.0 0.0 -0.0 10.4726 2.78246 20.4526 -31.3308 -58.0067 29.8564 1.01755 -26.7504 0.241954 56.4288 -1.46651 -6.76889 -1.99747 -28.1792 -25.2536 -0.0 0.0 -0.0 8.72562 -1.9676 -16.9834 -23.1277 29.8969 -57.6228 0.212425 6.00722 -0.0111461 49.6539 0.944142 6.07651 0.314868 -0.131895 -2.15802 0.0 0.0 0.0 -27.3774 5.20005 -0.131597 -12.2649 0.307604 1.85352 36.3331 -16.2403 -4.8669 -35.7862 0.0 0.0 -0.0 0.0 -0.0 10.5609 -25.2161 -8.59312 -12.2332 -0.307323 -1.84866 16.4054 13.897 2.44222 -39.4658 0.0 0.0 0.0 0.0 0.0 
1315.77099406 703.958 -1558.09322397 9.22240180568 28.3849115476 -1.013889722 -2.99221 0.00337801 -1.89453 -2.99022 0.123903 -1.89048 -2.9922 0.613104 -1.79262 -2.99654 0.322351 -1.86692 2.9919 6.30118 3.62237 3.06256 7.89309 4.47973 -0.0 0.0 -0.0 10.4726 2.78246 20.4526 -31.3308 -58.0067 29.8564 1.01755 -26.7504 0.241954 56.4288 -1.46651 -6.76889 -1.99747 -28.1792 -25.2536 -0.0 0.0 -0.0 8.72562 -1.9676 -16.9834 -23.1277 29.8969 -57.6228 0.212425 6.00722 -0.0111461 49.6539 0.944142 6.07651 0.314868 -0.131895 -2.15802 0.0 0.0 0.0 -27.3774 5.20005 -0.131597 -12.2649 0.307604 1.85352 36.3331 -16.2403 -4.8669 -35.7862 0.0 0.0 -0.0 0.0 -0.0 10.5609 -25.2161 -8.59312 -12.2332 -0.307323 -1.84866 16.4054 13.897 2.44222 -39.4658 0.0 0.0 0.0 0.0 0.0 
1294.39821558 713.442 -1589.22607368 10.7132633964 26.6396133378 -1.06339833403 -3.09403 0.0199685 -1.93197 -3.09196 0.142841 -1.92679 -3.09457 0.644136 -1.82158 -3.09903 0.348423 -1.90041 2.35519 5.12419 0.963013 2.4133 8.16212 1.46241 -0.0 0.0 -0.0 10.1816 3.78198 19.7897 -32.9697 -56.0198 32.297 0.977104 -25.8278 0.224042 56.4074 -1.46473 -6.76681 -1.91097 -24.4699 -23.3124 -0.0 0.0 -0.0 8.31038 0.132058 -16.2136 -21.8358 31.0456 -57.4185 0.269195 7.59583 -0.0178701 49.7757 0.952798 6.08948 -0.0864262 -3.41088 -0.85939 0.0 0.0 0.0 -21.3685 2.71599 -2.96217 -31.1264 -0.00072432 4.7185 39.5177 -12.9082 -5.05957 -29.2429 0.0 0.0 -0.0 0.0 -0.0 9.6684 -24.7975 -7.00373 -19.7971 -0.297998 -3.00832 23.4021 14.9448 3.38328 -40.1851 0.0 0.0 0.0 0.0 0.0 
